<svg 
 xmlns="http://www.w3.org/2000/svg"
 xmlns:xlink="http://www.w3.org/1999/xlink"
 width="12px" height="16px">
<path fill-rule="evenodd"  fill="rgb(255, 255, 255)"
 d="M11.000,16.000 L1.000,16.000 C0.448,16.000 0.000,15.552 0.000,15.000 L0.000,1.000 C0.000,0.448 0.448,0.000 1.000,0.000 L11.000,0.000 C11.552,0.000 12.000,0.448 12.000,1.000 L12.000,15.000 C12.000,15.552 11.552,16.000 11.000,16.000 ZM5.000,14.000 L7.000,14.000 L7.000,13.000 L5.000,13.000 L5.000,14.000 ZM10.000,11.000 L10.000,2.000 L2.000,2.000 L2.000,11.000 L2.000,12.000 L10.000,12.000 L10.000,11.000 Z"/>
</svg>